<?xml version="1.0" standalone="no"?>
<!DOCTYPE svg PUBLIC "-//W3C//DTD SVG 20010904//EN"
 "http://www.w3.org/TR/2001/REC-SVG-20010904/DTD/svg10.dtd">
<svg version="1.0" xmlns="http://www.w3.org/2000/svg"
 width="1024.000000pt" height="1024.000000pt" viewBox="0 0 1024.000000 1024.000000"
 preserveAspectRatio="xMidYMid meet">
<metadata>
Created by potrace 1.14, written by Peter Selinger 2001-2017
</metadata>
<g transform="translate(0.000000,1024.000000) scale(0.100000,-0.100000)"
fill="#000000" stroke="none">
<path d="M0 5120 l0 -5120 5120 0 5120 0 0 5120 0 5120 -5120 0 -5120 0 0
-5120z m2920 3799 c123 -59 200 -142 253 -271 l22 -53 5 -2670 c5 -2542 6
-2673 24 -2730 59 -198 224 -374 404 -435 125 -41 270 -45 397 -9 143 40 311
182 379 319 77 157 70 -50 76 2220 l5 2035 36 75 c45 93 96 152 173 202 112
72 157 80 447 76 239 -3 258 -5 312 -27 133 -53 246 -175 287 -309 20 -67 20
-78 17 -2152 -4 -2288 1 -2103 -62 -2338 -176 -645 -675 -1150 -1322 -1336
-175 -50 -277 -66 -463 -73 -244 -8 -436 17 -655 87 -624 200 -1112 714 -1275
1342 -64 249 -61 60 -58 3033 l3 2700 37 77 c60 126 155 212 284 257 55 19 79
21 329 18 l270 -2 75 -36z m5120 -800 c41 -20 95 -54 119 -75 58 -51 117 -142
141 -222 20 -63 20 -98 20 -2317 0 -1549 -3 -2278 -11 -2331 -56 -408 -339
-791 -715 -969 -152 -72 -361 -125 -496 -125 l-58 0 2 2863 3 2862 37 77 c60
126 155 212 284 257 55 19 79 21 329 18 l270 -2 75 -36z"/>
</g>
</svg>
