<?xml version="1.0" standalone="no"?>
<!DOCTYPE svg PUBLIC "-//W3C//DTD SVG 20010904//EN"
 "http://www.w3.org/TR/2001/REC-SVG-20010904/DTD/svg10.dtd">
<svg version="1.0" xmlns="http://www.w3.org/2000/svg"
 width="1024.000000pt" height="1024.000000pt" viewBox="0 0 1024.000000 1024.000000"
 preserveAspectRatio="xMidYMid meet">
<metadata>
Created by potrace 1.14, written by Peter Selinger 2001-2017
</metadata>
<g transform="translate(0.000000,1024.000000) scale(0.100000,-0.100000)"
fill="#000000" stroke="none">
<path d="M0 7759 l0 -2482 20 26 c11 14 20 32 20 40 0 9 5 19 10 22 6 3 10 17
10 31 0 13 6 24 13 24 14 0 39 49 31 61 -3 5 -12 9 -20 9 -8 0 -14 4 -14 9 0
5 20 6 44 4 29 -4 55 0 77 11 35 18 99 21 115 7 5 -5 23 -11 39 -13 27 -3 30
-7 33 -39 3 -35 5 -37 45 -42 23 -3 58 -14 76 -23 33 -16 39 -16 100 -1 37 10
80 17 98 17 17 0 35 5 38 10 3 6 19 10 36 10 16 0 38 5 48 12 16 9 24 6 54
-26 35 -36 57 -40 57 -12 0 9 9 12 25 8 14 -2 25 -11 25 -20 0 -12 12 -14 69
-10 37 3 75 9 82 14 44 28 92 34 292 33 119 0 207 -4 207 -10 0 -5 11 -9 25
-9 18 0 25 -5 25 -20 0 -14 7 -20 22 -20 32 0 88 -22 88 -35 0 -7 11 -18 25
-25 24 -13 55 -65 55 -94 0 -9 7 -16 15 -16 13 0 17 -6 14 -26 0 -4 3 -10 8
-13 28 -20 56 -131 34 -131 -7 0 -9 -5 -6 -11 4 -5 -1 -19 -10 -29 -16 -18
-16 -20 -1 -26 9 -3 13 -11 9 -16 -4 -7 4 -9 21 -6 18 4 26 1 26 -8 0 -8 -7
-14 -15 -14 -8 0 -15 -7 -15 -15 0 -18 12 -19 28 -3 14 14 81 11 99 -3 7 -7
13 -5 17 3 5 10 7 10 12 1 3 -7 12 -13 20 -13 9 0 12 5 9 10 -3 6 -2 10 4 10
5 0 13 -5 16 -10 4 -6 12 -10 18 -9 18 3 48 -12 42 -21 -3 -4 6 -15 19 -24 22
-14 24 -21 21 -67 -3 -32 1 -62 10 -79 14 -27 13 -29 -33 -65 -50 -39 -75 -41
-131 -10 -14 8 -42 22 -61 32 -58 29 -110 94 -110 137 0 20 -4 37 -10 37 -20
3 -25 4 -36 11 -7 4 -23 -3 -36 -17 -29 -28 -94 -59 -108 -50 -6 4 -10 14 -10
25 0 19 -19 30 -51 30 -10 0 -19 4 -19 9 0 5 -20 17 -45 27 -25 9 -45 21 -45
25 0 5 -10 9 -22 9 -13 0 -40 20 -69 52 -44 48 -52 53 -92 53 -35 0 -52 -7
-88 -36 -54 -43 -128 -58 -275 -55 -89 2 -103 5 -123 25 -18 18 -20 25 -10 37
10 12 9 17 -4 27 -8 7 -17 21 -19 32 -2 15 -12 21 -42 23 -21 2 -46 0 -55 -4
-9 -4 -20 -6 -25 -5 -5 1 -16 -5 -25 -12 -37 -32 -133 -39 -266 -17 -54 8 -80
9 -83 2 -2 -7 -14 -7 -35 -1 -19 5 -35 5 -40 0 -9 -9 -20 -6 -92 25 -16 7 -48
15 -70 18 -61 8 -85 17 -85 32 0 8 -7 14 -16 14 -8 0 -12 4 -9 10 3 6 -1 7 -9
4 -14 -5 -16 -55 -16 -415 0 -357 2 -409 15 -409 8 0 15 -7 15 -16 0 -8 4 -13
10 -9 5 3 18 -3 28 -13 10 -10 26 -21 35 -25 19 -7 43 -47 27 -47 -5 0 -10 -7
-10 -15 0 -8 -5 -15 -11 -15 -5 0 -8 -4 -4 -9 6 -10 -9 -16 -68 -27 l-37 -6 0
-2064 0 -2064 5120 0 5120 0 0 1585 c0 872 -4 1585 -8 1585 -4 0 -25 -9 -47
-21 -32 -17 -48 -20 -89 -14 -28 4 -64 7 -81 9 -16 1 -36 5 -44 10 -11 7 -13
5 -8 -7 9 -23 -5 -28 -36 -12 -14 7 -35 11 -47 8 -14 -4 -20 -1 -20 11 0 9 -4
16 -9 16 -5 0 -18 3 -28 6 -10 3 -14 2 -8 -3 13 -10 13 -44 0 -63 -5 -8 -11
-26 -13 -40 -1 -14 -14 -35 -27 -47 -14 -12 -25 -26 -25 -32 0 -5 -12 -5 -30
2 -22 9 -33 8 -42 -1 -16 -16 -2 -28 17 -12 8 7 15 8 15 2 0 -23 -78 -23 -127
0 -15 7 -31 7 -54 -1 -17 -6 -45 -11 -61 -11 -34 0 -125 -79 -134 -117 -4 -12
-13 -23 -21 -23 -9 0 -13 -6 -10 -14 6 -16 -24 -43 -58 -52 -14 -3 -28 -10
-31 -15 -3 -5 -14 -9 -25 -9 -10 0 -19 -7 -19 -15 0 -8 -7 -15 -15 -15 -8 0
-15 -6 -15 -14 0 -28 -34 -39 -148 -51 -18 -2 -38 -8 -45 -13 -13 -10 -61 -25
-92 -28 -10 -1 -21 -7 -23 -13 -2 -6 -9 -11 -17 -11 -7 0 -19 -10 -27 -22 -13
-19 -18 -20 -45 -10 -27 9 -32 8 -36 -8 -3 -10 -14 -19 -28 -19 -105 -5 -123
-9 -135 -26 -10 -14 -14 -15 -14 -4 0 11 -2 12 -9 0 -6 -10 -13 -11 -29 -2
-24 13 -66 15 -58 3 2 -4 -5 -14 -16 -21 -19 -12 -20 -11 -16 6 6 22 -27 29
-49 11 -9 -7 -13 -7 -13 1 0 7 -4 10 -9 6 -5 -3 -12 -1 -15 4 -8 12 -42 7 -39
-6 1 -5 -10 -10 -25 -11 -26 -1 -27 -1 -7 15 l20 16 -20 -8 c-11 -4 -30 -10
-43 -12 -12 -3 -22 -9 -22 -14 0 -11 -54 0 -58 12 -5 13 -32 12 -32 -2 0 -5 5
-7 12 -3 7 4 8 3 4 -5 -6 -9 -11 -9 -22 0 -7 6 -12 15 -9 18 2 4 -2 8 -10 8
-8 0 -12 -4 -9 -9 3 -4 -2 -8 -11 -8 -9 0 -14 3 -12 7 5 8 -47 9 -68 3 -18 -6
-30 -8 -48 -9 -11 -1 -15 -6 -11 -13 4 -7 3 -8 -5 -4 -6 4 -20 2 -29 -5 -13
-10 -12 -8 2 9 l19 22 -32 -11 c-17 -6 -38 -8 -47 -5 -10 4 -13 2 -8 -6 5 -7
-1 -9 -20 -4 -14 3 -26 2 -26 -2 0 -8 -35 -9 -50 -2 -3 1 -22 1 -44 0 -25 -1
-36 2 -32 9 7 11 2 12 -54 15 -14 0 -35 7 -48 14 -12 7 -27 10 -32 7 -5 -3
-11 -1 -15 5 -3 5 -12 10 -18 10 -7 0 -4 -5 5 -11 27 -15 12 -36 -22 -31 -21
3 -30 0 -30 -9 0 -11 -2 -11 -10 1 -6 10 -10 11 -10 3 0 -19 -12 -16 -42 12
-15 14 -32 25 -38 25 -15 0 -12 16 6 35 9 9 22 14 30 11 9 -3 7 5 -5 27 -13
23 -16 39 -10 57 8 25 9 24 5 -3 -3 -26 -3 -27 14 -10 9 10 14 19 9 21 -4 2
-5 14 -3 28 3 15 0 24 -8 24 -23 0 16 20 40 20 13 0 22 -6 22 -15 0 -8 7 -15
15 -15 8 0 15 -9 15 -20 0 -11 3 -19 8 -19 4 1 14 1 22 0 13 -1 13 -2 0 -11
-8 -5 -13 -10 -10 -11 3 0 13 -2 22 -4 9 -2 19 3 22 11 6 15 32 9 54 -13 20
-20 29 -16 71 25 21 20 60 56 86 80 38 33 48 49 48 72 0 17 5 30 11 30 6 0 4
5 -4 10 -13 9 -13 11 0 20 12 8 11 10 -7 10 -12 0 -25 5 -29 11 -5 8 3 10 25
7 20 -3 31 0 31 8 0 7 3 19 6 28 5 13 -1 16 -32 15 -31 0 -35 -2 -19 -9 19 -8
19 -9 -4 -9 -17 -1 -22 3 -17 15 3 9 6 27 6 41 0 24 2 25 50 21 33 -2 50 1 50
8 0 7 8 14 18 18 24 8 56 29 65 44 4 6 14 12 22 12 8 0 17 11 21 25 3 14 10
25 15 25 5 0 9 11 9 25 0 14 4 25 8 25 4 0 9 11 10 25 1 21 -3 25 -23 25 -14
0 -25 6 -25 13 0 8 -9 22 -19 31 -11 10 -17 24 -14 32 3 8 -1 14 -11 14 -12 0
-16 10 -16 35 0 21 5 34 11 33 6 -2 14 3 16 10 3 6 0 12 -6 12 -6 0 -11 16
-11 35 0 23 4 34 13 33 8 -2 12 13 13 50 1 49 13 87 15 46 0 -14 2 -15 6 -4 4
8 13 21 22 28 14 11 13 12 -8 6 -19 -5 -23 -3 -18 9 4 10 -3 24 -19 36 l-25
20 23 4 c23 4 -12 1 -89 -9 -29 -4 -43 -11 -43 -21 0 -11 -10 -14 -37 -12 -61
3 -125 -17 -102 -32 10 -6 4 -9 -18 -9 -42 0 -86 -17 -78 -31 4 -6 -3 -21 -15
-34 -13 -14 -19 -29 -15 -36 5 -7 4 -10 -2 -6 -14 9 -37 -19 -27 -34 4 -7 3
-9 -4 -5 -6 3 -16 -7 -24 -24 -12 -29 -15 -31 -64 -27 -27 2 -65 11 -84 20
-18 9 -41 17 -52 17 -10 0 -18 7 -18 15 0 9 -9 15 -24 15 -19 0 -26 6 -29 28
-4 25 -4 25 -6 -5 0 -22 -6 -33 -16 -33 -9 0 -12 6 -9 15 4 8 -1 17 -10 21 -9
3 -16 15 -16 25 0 13 -7 19 -24 19 -13 0 -26 7 -30 15 -3 8 -17 15 -31 15 -14
0 -25 4 -25 10 0 6 -10 5 -25 -2 -14 -6 -25 -15 -25 -20 0 -4 -13 -8 -30 -8
-27 0 -35 8 -31 33 2 14 -47 7 -53 -9 -3 -8 -10 -12 -16 -9 -5 3 -10 1 -10 -5
0 -21 -48 -63 -64 -57 -14 6 -21 -4 -17 -25 0 -5 -6 -8 -14 -8 -8 0 -15 -7
-15 -16 0 -8 -4 -12 -10 -9 -6 3 -10 -4 -11 -17 -1 -49 -12 -114 -21 -125 -5
-6 -8 -33 -5 -58 4 -44 3 -46 -18 -41 -19 5 -22 2 -17 -21 4 -23 2 -25 -22
-21 -14 3 -26 1 -26 -4 0 -12 -26 -38 -32 -32 -3 3 -3 -7 0 -21 3 -20 1 -24
-12 -19 -12 4 -16 0 -16 -15 0 -16 -6 -21 -26 -21 -18 0 -25 -4 -21 -14 3 -8
-2 -16 -14 -19 -10 -3 -19 -12 -19 -21 0 -9 -7 -16 -15 -16 -8 0 -15 4 -15 8
0 5 -7 9 -15 9 -11 0 -12 -4 -4 -14 6 -7 8 -13 3 -14 -51 -6 -74 -5 -74 5 0 8
-2 8 -8 0 -11 -16 -47 -23 -67 -11 -13 7 -16 6 -11 -2 5 -7 -4 -11 -26 -11
-25 0 -29 3 -18 10 13 8 12 10 -2 10 -10 0 -18 -4 -18 -10 0 -5 -4 -10 -10
-10 -5 0 -7 7 -4 15 4 8 1 15 -6 15 -6 0 -8 4 -5 10 3 5 -7 12 -22 16 -15 4
-32 12 -36 18 -5 6 -5 1 -2 -11 3 -13 3 -23 -2 -24 -4 0 -18 -2 -31 -3 -17 -2
-21 1 -17 13 5 12 2 12 -13 -2 -23 -21 -32 -22 -32 -3 0 8 -5 18 -12 22 -7 5
-9 2 -5 -9 5 -14 2 -14 -31 0 -42 18 -125 27 -117 12 3 -5 -1 -6 -9 -3 -9 3
-16 10 -16 15 0 5 -11 9 -24 9 -35 0 -57 10 -49 23 4 6 0 8 -10 4 -12 -4 -14
-2 -10 10 4 10 2 14 -4 10 -6 -4 -14 -1 -16 5 -4 9 -6 9 -6 -1 -1 -11 -5 -10
-17 5 -8 10 -13 13 -9 6 3 -6 1 -12 -4 -12 -6 0 -11 9 -11 20 0 11 -7 20 -15
20 -8 0 -15 4 -15 9 0 5 -12 12 -26 15 -17 5 -24 12 -20 21 3 8 1 17 -4 20 -4
3 -10 -1 -13 -7 -4 -10 -7 -10 -18 0 -8 7 -14 18 -14 24 0 6 -7 13 -15 15 -13
4 -13 3 0 -6 11 -8 12 -11 2 -11 -8 0 -16 9 -19 19 -3 11 -14 22 -25 24 -11 3
-17 10 -13 16 3 6 0 11 -7 11 -16 0 -54 41 -50 54 2 5 -5 6 -15 4 -10 -3 -24
0 -30 6 -28 26 -41 34 -46 30 -3 -3 -14 6 -25 20 -11 15 -25 26 -30 26 -6 0
-13 8 -15 18 -4 14 -5 14 -6 -3 -1 -17 -3 -18 -11 -5 -6 9 -10 11 -10 3 0 -7
-7 -10 -15 -7 -8 4 -15 16 -15 29 0 23 -30 45 -30 22 0 -7 -5 -4 -11 6 -10 18
-11 18 -26 0 -13 -16 -14 -17 -9 -1 6 19 2 20 -74 19 -32 0 -39 2 -26 8 19 7
18 8 -5 14 -13 4 -41 7 -61 7 -36 0 -37 1 -28 25 l10 25 -31 -16 c-17 -8 -28
-11 -25 -6 3 6 -11 13 -34 17 -22 4 -42 11 -46 16 -3 5 -16 9 -30 9 -14 0 -23
4 -19 10 3 6 -2 13 -12 17 -10 4 -21 11 -25 17 -5 7 -8 7 -8 -1 0 -7 -12 -13
-27 -13 -20 0 -24 3 -16 11 9 9 9 15 0 23 -12 12 -44 28 -62 31 -22 3 -45 18
-45 29 0 6 -16 19 -35 28 -31 16 -38 16 -77 2 -24 -8 -65 -16 -91 -16 -26 -1
-51 -7 -55 -13 -4 -7 -17 -18 -30 -24 -21 -11 -22 -15 -10 -29 24 -29 19 -62
-13 -89 -16 -14 -29 -33 -29 -44 0 -10 -4 -19 -9 -19 -5 0 -19 -21 -32 -48
-23 -49 -37 -64 -51 -56 -4 3 -8 -3 -8 -14 0 -15 -8 -19 -41 -20 -22 -1 -45
-4 -50 -8 -5 -3 -9 -1 -9 4 0 5 -12 10 -26 10 -17 0 -24 -5 -20 -14 7 -19 -4
-18 -19 3 -8 11 -14 13 -19 5 -4 -7 -2 -12 4 -12 18 0 -12 -26 -40 -35 -14 -5
-41 -9 -60 -11 -46 -4 -62 -8 -79 -18 -9 -6 -12 -5 -8 1 11 17 -20 36 -48 29
-14 -4 -25 -3 -24 1 3 21 -3 31 -18 29 -10 0 -19 9 -23 24 l-6 25 -27 -27
c-15 -15 -27 -33 -27 -41 0 -7 -13 -28 -28 -45 -22 -25 -37 -32 -65 -32 -20 0
-39 5 -42 10 -4 6 -12 10 -18 9 -34 -4 -58 2 -51 13 5 8 2 9 -10 5 -10 -4 -15
-3 -11 3 7 11 -34 30 -50 23 -6 -2 -30 3 -54 12 -31 11 -48 12 -62 5 -10 -6
-19 -8 -19 -4 0 3 -11 -1 -24 -9 -16 -11 -41 -14 -82 -12 -32 2 -78 0 -103 -5
-24 -4 -52 -4 -60 0 -18 9 -92 25 -161 36 -24 3 -54 12 -65 19 -11 7 -44 16
-72 20 -36 5 -53 12 -53 21 0 8 -5 14 -11 14 -6 0 -23 13 -37 28 -27 28 -117
72 -153 75 -10 1 -19 5 -19 9 0 5 -11 13 -24 19 -13 6 -27 20 -29 30 -3 10
-13 22 -24 26 -10 3 -21 11 -25 17 -5 7 -8 6 -9 -4 0 -10 -3 -8 -8 5 -4 11
-17 20 -27 20 -12 0 -18 6 -18 18 1 10 -10 24 -27 33 -16 8 -29 22 -29 32 0
10 -6 24 -13 31 -9 11 -9 13 1 7 16 -9 16 16 0 32 -17 17 -28 15 -29 -5 0 -11
-3 -13 -6 -5 -2 6 -17 12 -32 12 -35 0 -37 25 -4 58 13 12 23 31 23 40 0 9 5
24 11 32 7 11 8 -1 3 -40 -3 -30 -3 -52 0 -49 4 4 11 51 15 105 8 83 7 101 -6
111 -8 6 -14 14 -14 17 3 25 -3 25 -9 1 l-8 -30 -2 33 c-2 17 -3 38 -4 45 -1
6 -4 14 -8 17 -4 3 -3 19 1 35 9 29 9 29 11 5 2 -19 5 -13 14 20 14 58 24 73
45 67 14 -3 16 1 13 24 -3 23 0 29 14 29 16 0 17 -2 4 -10 -18 -12 -19 -12 97
-12 64 0 87 4 107 18 31 23 32 30 6 37 -28 7 -25 20 9 35 19 8 28 18 24 27 -2
8 1 21 9 28 12 12 19 11 47 -9 l34 -23 -29 -6 c-44 -10 -57 -15 -52 -20 2 -2
21 0 42 6 26 7 41 7 50 0 9 -7 16 -7 23 0 7 7 13 7 17 1 4 -6 19 -7 43 0 21 5
54 13 73 18 19 5 60 5 90 1 30 -5 49 -9 43 -10 -9 -1 -10 -8 -3 -27 6 -14 10
-38 10 -53 0 -26 3 -29 48 -34 49 -5 84 4 63 17 -6 4 -8 18 -5 33 5 18 3 24
-5 19 -10 -7 -15 13 -14 67 0 9 -4 17 -9 17 -5 0 4 12 21 26 29 24 33 25 86
14 30 -6 61 -18 69 -26 8 -8 21 -14 30 -14 8 0 17 -9 21 -19 3 -11 15 -23 26
-26 10 -4 24 -16 30 -27 8 -15 8 -19 0 -14 -18 12 -12 -2 10 -23 20 -18 21
-27 15 -82 -3 -34 -11 -68 -17 -75 -6 -8 -8 -14 -5 -14 4 0 0 -10 -8 -22 -35
-50 -9 -107 36 -79 10 6 23 9 28 6 6 -4 10 2 10 12 0 11 5 24 12 31 18 18 20
52 3 52 -21 0 -19 22 5 43 11 9 20 26 20 37 0 24 46 46 64 31 13 -10 82 -23
141 -25 23 -1 48 -7 56 -14 8 -7 27 -23 42 -37 27 -24 97 -36 97 -16 0 4 33
11 73 15 39 3 93 13 119 22 37 12 55 13 87 4 23 -6 41 -15 41 -20 0 -6 20 -10
44 -10 25 0 56 -4 70 -10 17 -6 27 -6 32 1 3 6 10 6 17 1 7 -5 25 -12 42 -16
16 -4 48 -16 72 -27 23 -11 65 -25 93 -32 28 -7 48 -16 44 -20 -4 -3 4 -4 16
-2 13 2 28 -2 34 -9 11 -14 36 -21 121 -36 37 -6 58 -4 79 6 16 8 43 14 61 14
17 0 35 4 41 9 5 5 24 12 42 16 25 5 33 4 31 -7 -3 -28 2 -38 20 -38 27 0 38
-21 17 -32 -16 -9 -16 -11 1 -24 17 -13 17 -13 0 -14 -28 0 -9 -20 19 -20 14
0 22 -4 19 -10 -8 -12 27 -13 80 0 26 6 44 5 52 -2 7 -6 33 -8 58 -5 42 4 45
3 39 -16 -5 -15 -3 -19 10 -14 8 3 18 2 21 -3 3 -4 17 -5 33 -1 32 9 69 -5 77
-29 3 -9 20 -27 37 -40 32 -24 69 -28 116 -14 12 3 22 2 22 -3 0 -8 16 -12 63
-14 25 -2 130 11 135 16 2 2 4 20 5 41 1 32 -6 43 -56 90 -31 30 -74 63 -95
73 -89 48 -134 110 -137 190 -1 32 -5 62 -8 68 -3 5 -8 20 -10 34 -9 45 -12
54 -25 67 -7 8 -10 18 -7 23 4 5 1 9 -6 9 -13 0 -59 46 -59 60 0 5 14 17 32
26 24 13 36 14 50 5 10 -6 38 -11 63 -11 29 0 45 -4 45 -12 0 -8 3 -9 8 -3 4
6 13 10 20 11 6 1 20 2 30 3 13 1 17 9 16 34 -1 17 -3 34 -4 37 -1 3 -4 14 -6
25 -2 11 -7 35 -10 53 -3 17 -2 32 2 33 5 0 26 2 47 3 21 1 42 8 46 15 5 7 14
13 22 15 36 6 59 19 59 32 0 8 5 14 10 14 16 0 12 37 -6 54 -8 9 -11 16 -5 16
6 0 11 16 11 35 0 25 4 35 15 35 9 0 18 7 21 15 4 8 17 15 31 15 20 0 24 4 20
20 -3 11 -1 23 4 26 5 3 7 9 4 14 -3 5 -1 11 5 15 5 3 10 1 10 -6 0 -21 29 24
30 46 0 17 2 17 10 5 8 -12 10 -11 10 8 0 16 5 22 18 20 12 -2 18 5 20 27 2
17 8 35 14 42 20 24 -36 39 -119 32 -57 -5 -81 -4 -88 5 -5 7 -37 16 -70 19
-39 4 -55 3 -45 -3 14 -9 -33 -5 -68 6 -7 2 -10 -1 -7 -6 15 -24 -47 -8 -75
20 -26 25 -31 39 -33 82 -1 29 -6 56 -12 60 -5 4 3 18 18 32 15 14 27 32 27
41 0 9 5 13 10 10 6 -3 10 0 10 8 0 8 9 17 20 20 13 3 20 14 20 29 0 13 5 29
12 36 6 6 10 34 9 61 -1 27 3 52 9 56 6 3 79 8 163 9 135 3 153 1 153 -13 1
-75 -1 -73 63 -69 33 1 57 0 54 -4 -2 -5 9 -8 26 -8 46 0 72 -14 128 -69 35
-34 60 -51 77 -51 16 0 26 -6 26 -15 0 -18 17 -20 22 -3 3 7 18 -1 38 -21 21
-20 41 -30 52 -28 20 6 23 -4 7 -20 -7 -7 11 -13 63 -19 40 -4 79 -8 86 -7 6
0 12 -5 12 -12 0 -7 8 -15 19 -18 10 -2 25 -17 33 -33 8 -16 20 -28 26 -26 7
1 12 -2 12 -8 0 -5 15 -10 33 -11 45 -1 66 -11 80 -38 13 -25 100 -79 130 -80
9 -1 17 -4 17 -9 0 -7 29 -25 62 -38 18 -7 58 -80 58 -107 0 -9 4 -18 10 -22
5 -3 7 -12 3 -20 -4 -11 3 -15 26 -15 25 0 31 -4 31 -22 0 -29 15 -54 24 -40
3 6 2 13 -4 17 -17 11 -11 35 10 35 13 0 18 -5 14 -15 -4 -8 -2 -15 4 -15 6 0
8 -8 6 -18 -4 -15 3 -17 58 -19 35 -1 110 -6 168 -10 58 -5 110 -5 116 -1 12
9 21 47 31 133 3 27 11 58 18 69 8 10 11 24 8 32 -3 8 5 18 22 24 14 5 23 14
20 20 -4 6 5 10 19 10 14 0 26 -5 26 -11 0 -7 14 -10 35 -7 23 3 32 1 25 -6
-18 -18 -12 -39 10 -33 11 3 18 1 14 -4 -3 -5 2 -9 11 -9 8 0 20 -11 27 -25 6
-13 15 -22 19 -19 5 3 9 -2 9 -10 0 -9 5 -16 10 -16 6 0 9 -5 8 -12 -2 -6 11
-16 27 -21 54 -17 75 -30 75 -46 0 -11 3 -13 8 -4 6 10 15 9 37 -3 16 -8 32
-18 35 -22 3 -4 30 -19 61 -34 55 -28 147 -40 134 -18 -3 6 1 10 11 10 28 0
90 80 81 105 -7 18 21 23 158 30 55 2 116 8 135 13 49 12 47 12 75 12 15 0 41
16 71 45 25 25 50 45 55 45 5 0 9 7 9 15 0 8 10 17 23 19 45 10 113 18 165 19
28 1 52 5 52 9 0 9 91 -2 105 -12 16 -12 154 -33 171 -26 9 3 21 3 27 -1 7 -4
24 -6 38 -5 31 4 132 -33 149 -53 7 -8 21 -15 32 -15 10 0 22 -8 26 -17 9 -22
20 -25 106 -29 50 -2 72 1 83 11 11 12 12 15 1 16 -22 1 55 27 84 28 15 1 33
9 40 20 7 10 22 21 34 25 11 3 30 15 41 25 24 22 110 54 124 46 5 -4 9 1 9 11
0 12 6 15 25 12 14 -3 28 -1 31 3 13 22 144 2 144 -23 0 -11 38 -48 50 -48 7
0 10 865 10 2575 l0 2575 -5120 0 -5120 0 0 -2481z m5004 1762 c7 -14 13 -42
15 -62 2 -32 -2 -38 -31 -52 -18 -9 -27 -17 -20 -17 6 0 12 -5 12 -10 0 -11
-49 -3 -63 10 -9 8 -37 133 -37 163 0 10 10 21 22 26 28 10 84 -21 102 -58z
m-2918 -784 c3 -8 10 -15 17 -16 29 -7 168 -7 232 -1 56 6 75 4 95 -9 52 -33
74 -41 92 -36 10 4 18 10 18 15 0 5 15 7 33 4 25 -4 29 -3 17 6 -12 8 -7 9 21
4 24 -4 39 -2 44 6 6 9 9 9 16 -1 6 -11 14 -11 44 0 36 13 102 8 137 -10 10
-5 24 -22 32 -37 8 -15 35 -42 60 -61 25 -19 48 -43 52 -53 3 -10 11 -18 18
-18 7 0 19 -11 26 -25 13 -24 35 -30 90 -27 16 1 100 -46 100 -56 0 -4 21 -18
48 -32 26 -13 61 -36 78 -50 31 -27 32 -27 188 -26 86 1 156 -2 156 -6 0 -5
13 -8 29 -8 16 0 39 -8 51 -18 23 -18 35 -68 20 -77 -5 -3 -7 -12 -4 -20 4 -8
10 -12 15 -9 5 3 9 0 9 -6 0 -6 4 -9 10 -5 11 7 59 -62 65 -95 2 -12 11 -27
18 -34 23 -17 28 -59 12 -90 -8 -16 -15 -31 -15 -35 0 -14 69 -43 82 -35 22
14 98 17 98 3 0 -6 8 -9 20 -6 10 3 24 -1 31 -9 6 -8 16 -14 21 -14 5 0 18 -9
30 -20 12 -11 27 -20 33 -20 6 0 19 -17 30 -37 11 -21 34 -52 51 -69 36 -37
66 -48 189 -71 17 -3 33 -9 36 -15 3 -5 31 -12 62 -15 32 -3 57 -10 57 -14 0
-5 5 -9 12 -9 6 0 20 -8 31 -17 23 -22 152 -24 211 -4 21 8 53 14 70 15 17 2
30 7 29 13 -3 16 60 29 65 14 2 -6 10 -11 18 -11 8 0 14 -5 14 -11 0 -7 10
-20 22 -30 11 -11 18 -19 13 -19 -4 0 -2 -7 5 -15 7 -8 9 -15 4 -16 -5 0 5 -5
21 -10 19 -5 31 -5 33 1 2 6 10 10 17 10 7 0 23 15 34 34 29 47 111 80 175 71
25 -4 46 -10 46 -14 0 -6 16 -8 147 -15 49 -3 78 -9 88 -20 9 -9 23 -16 31
-16 8 0 24 -12 37 -27 12 -14 32 -35 44 -46 11 -10 24 -34 28 -53 3 -20 12
-34 20 -34 11 0 15 -11 15 -38 0 -21 7 -47 15 -58 16 -22 20 -54 6 -54 -13 0
-14 -14 -13 -157 0 -123 12 -188 38 -209 7 -6 17 -28 20 -50 14 -79 15 -77
-56 -91 -36 -7 -76 -10 -88 -7 -36 8 -62 -5 -62 -29 0 -32 -10 -43 -55 -57
-22 -7 -50 -21 -61 -32 -12 -11 -30 -18 -40 -17 -11 2 -25 0 -32 -4 -17 -12
-82 11 -82 29 0 8 -5 14 -11 14 -5 0 -7 -6 -4 -12 4 -7 -1 -4 -9 6 -12 15 -16
16 -16 5 0 -10 -2 -11 -8 -2 -11 17 -63 36 -89 34 -13 -1 -23 2 -23 8 0 6 -12
11 -26 11 -14 0 -23 4 -19 10 4 6 -6 10 -24 10 -37 0 -83 -42 -74 -67 4 -11 3
-14 -5 -9 -7 4 -12 1 -12 -8 0 -9 4 -16 9 -16 5 0 11 -10 14 -21 4 -16 11 -20
24 -15 10 4 22 8 27 9 12 3 45 -56 38 -67 -3 -5 3 -6 12 -3 15 6 17 4 11 -10
-4 -10 -7 -25 -7 -33 2 -40 -11 -82 -30 -100 -21 -19 -21 -20 -2 -20 16 -1 17
-2 3 -10 -8 -5 -27 -10 -41 -12 -14 -2 -34 -10 -44 -18 -13 -12 -18 -12 -21
-2 -3 6 -10 9 -16 5 -28 -17 -67 -12 -94 13 -15 15 -19 20 -8 13 19 -13 19
-13 6 4 -8 10 -20 16 -28 13 -8 -3 -11 -1 -8 4 9 15 -17 38 -37 32 -10 -2 -33
7 -52 22 -19 14 -37 26 -40 26 -11 0 -96 93 -96 106 0 8 -6 11 -15 8 -8 -4
-15 -2 -15 3 0 5 -9 19 -20 31 -12 12 -18 22 -15 22 3 0 3 6 -2 13 -8 13 -9
16 -18 62 -7 39 -78 102 -120 107 -24 3 -36 -2 -51 -20 -10 -14 -27 -33 -36
-43 -10 -11 -18 -24 -18 -30 0 -12 -25 -39 -37 -41 -17 -1 -42 -25 -35 -33 4
-5 2 -6 -4 -2 -15 8 -124 -100 -124 -124 0 -12 -43 -55 -52 -51 -5 1 -8 -4 -8
-12 0 -7 -13 -16 -30 -19 -21 -5 -30 -12 -30 -26 0 -10 -7 -22 -16 -25 -22 -8
-31 1 -16 16 19 19 14 25 -20 20 -27 -4 -29 -6 -15 -17 9 -7 17 -17 17 -22 0
-6 7 -16 15 -23 9 -7 13 -15 11 -17 -5 -5 3 -15 32 -48 21 -23 89 -19 102 5
13 24 23 25 44 5 8 -8 19 -15 25 -15 6 0 11 -7 11 -15 0 -8 6 -14 13 -12 6 1
11 -3 10 -10 -3 -15 20 -21 78 -21 34 0 58 -8 87 -27 22 -14 49 -27 60 -28 12
0 18 -6 15 -14 -3 -7 0 -20 7 -28 17 -21 57 -19 63 3 4 13 5 12 6 -5 1 -16 6
-21 16 -17 8 4 21 1 28 -4 18 -15 51 -5 66 21 11 18 11 20 0 10 -7 -7 -18 -13
-23 -13 -6 1 0 10 13 21 23 19 23 20 6 33 -10 7 -15 18 -11 24 9 15 56 16 56
2 0 -5 9 -10 21 -10 15 0 19 5 15 15 -8 23 10 18 20 -5 5 -12 40 -38 79 -58
56 -31 70 -44 77 -70 5 -18 13 -32 18 -32 6 0 10 -5 10 -11 0 -6 9 -22 20 -36
21 -27 19 -46 -5 -36 -11 4 -13 1 -9 -11 3 -9 9 -14 13 -11 4 2 8 -2 8 -10 0
-8 -6 -15 -14 -15 -7 0 -13 -7 -13 -15 0 -8 -4 -15 -10 -15 -5 0 -10 -6 -10
-14 0 -13 -24 -15 -97 -7 -7 0 -13 8 -13 16 0 8 -7 15 -16 15 -8 0 -12 -5 -8
-11 3 -6 -1 -10 -12 -9 -25 3 -64 -10 -64 -21 0 -5 -11 -9 -24 -9 -33 0 -57
-10 -50 -21 3 -5 0 -9 -7 -9 -7 0 -5 -8 6 -20 22 -24 15 -36 -12 -22 -12 7
-25 7 -34 1 -12 -7 -12 -9 0 -9 10 0 8 -7 -9 -25 -12 -13 -27 -22 -31 -19 -5
3 -9 -4 -9 -15 0 -16 -6 -21 -24 -21 -13 0 -26 -4 -28 -8 -1 -5 -29 -12 -60
-15 -50 -5 -58 -3 -58 11 0 13 -2 14 -8 4 -15 -22 -44 -3 -38 24 4 15 2 24 -5
24 -6 0 -10 15 -8 38 3 51 1 62 -11 62 -5 0 -10 -11 -10 -25 0 -27 -24 -35
-34 -10 -3 8 -15 15 -26 15 -11 0 -20 5 -20 10 0 15 -97 13 -104 -2 -3 -10 -9
-8 -19 5 -8 9 -20 17 -26 17 -7 0 -27 15 -44 33 -18 17 -51 41 -75 51 -23 10
-42 22 -42 27 0 4 -21 17 -47 29 -27 12 -56 26 -65 31 -23 12 -88 12 -88 0 0
-5 -15 -11 -32 -14 -18 -3 -51 -10 -73 -14 -51 -11 -96 9 -156 71 -10 10 -25
16 -33 13 -10 -4 -16 -1 -16 8 0 8 -9 15 -20 15 -11 0 -20 5 -20 11 0 6 -20
31 -45 55 -46 44 -46 44 -110 41 -39 -2 -63 1 -62 7 1 6 -4 11 -10 12 -7 1
-17 2 -22 3 -20 2 -72 55 -67 67 3 8 1 14 -4 14 -4 0 -11 15 -15 33 -10 44
-36 98 -45 92 -4 -2 -5 6 -3 19 5 26 -17 40 -48 31 -20 -7 -79 20 -79 35 0 6
-6 10 -14 10 -15 0 -26 21 -26 51 0 10 -5 19 -11 19 -7 0 -18 8 -25 18 -13 16
-13 16 -14 0 0 -27 -24 -11 -49 32 -12 22 -30 44 -39 49 -15 9 -15 10 3 11 15
0 17 2 6 9 -7 5 -21 7 -30 4 -10 -2 -23 3 -30 11 -11 14 -11 16 3 16 10 0 14
5 10 11 -3 6 -16 8 -28 5 -11 -3 -27 -2 -33 2 -13 8 -34 88 -25 97 3 3 0 5 -7
5 -9 0 -11 8 -7 25 7 27 39 65 56 65 6 0 10 6 10 13 0 15 54 49 64 40 3 -3 6
-2 6 4 0 6 8 9 19 6 23 -6 32 25 24 83 -4 31 -9 41 -20 37 -7 -3 -13 -2 -12 3
5 26 -3 54 -14 54 -15 0 -116 96 -133 126 -6 10 -23 25 -37 32 -15 7 -27 17
-27 23 0 5 -6 9 -13 9 -21 0 -127 90 -127 108 0 5 -9 17 -19 26 -10 10 -22 34
-26 54 -9 47 -15 57 -26 41 -6 -10 -9 -7 -10 11 -1 14 -1 28 0 32 0 4 -8 10
-19 13 -11 4 -20 11 -20 16 0 6 6 7 13 3 6 -4 -4 8 -23 27 -19 19 -43 38 -53
42 -10 4 -15 11 -12 17 3 5 2 10 -3 10 -5 0 -17 16 -26 35 -17 35 -62 72 -50
40 3 -8 -13 3 -36 25 -23 22 -47 40 -52 40 -8 0 -17 6 -51 36 -7 5 -27 19 -44
29 -30 18 -33 24 -33 67 0 34 4 48 14 48 19 0 47 45 40 64 -3 9 -2 16 4 16 11
0 5 38 -9 56 -5 6 -6 14 -2 17 9 10 -67 9 -102 -1 -17 -5 -47 -7 -67 -4 -34 4
-38 7 -38 33 0 16 -9 48 -19 72 -27 60 -37 137 -17 137 8 0 18 9 21 20 3 11
12 21 18 22 67 8 107 20 102 29 -4 5 1 9 10 9 9 0 13 5 10 10 -3 6 4 10 17 10
19 0 20 2 8 11 -12 9 -12 12 -2 16 12 5 71 63 110 108 6 8 12 26 12 40 0 26
17 34 26 12z m-276 -547 c0 -5 -5 -10 -11 -10 -5 0 -7 5 -4 10 3 6 8 10 11 10
2 0 4 -4 4 -10z m-40 -20 c0 -11 5 -20 10 -20 6 0 10 5 10 12 0 9 3 9 12 0 17
-17 4 -25 -31 -17 -22 5 -31 12 -31 26 0 10 7 19 15 19 8 0 15 -9 15 -20z
m-687 -213 c3 -8 1 -20 -4 -28 -6 -10 -9 -7 -9 14 0 29 5 35 13 14z m17 -97
c0 -5 -4 -10 -9 -10 -6 0 -13 5 -16 10 -3 6 1 10 9 10 9 0 16 -4 16 -10z m10
-38 c0 -4 -4 -11 -8 -17 -6 -9 -15 -10 -59 -6 -7 1 -13 12 -13 25 0 13 6 26
13 29 14 5 67 -20 67 -31z m4100 -1207 c-7 -8 -17 -15 -22 -15 -11 0 14 29 26
30 5 0 3 -7 -4 -15z m100 -155 c0 -5 -4 -10 -10 -10 -5 0 -10 5 -10 10 0 6 5
10 10 10 6 0 10 -4 10 -10z m-570 -300 c0 -5 -2 -10 -4 -10 -3 0 -8 5 -11 10
-3 6 -1 10 4 10 6 0 11 -4 11 -10z m-105 -29 c3 -6 -3 -15 -14 -20 -16 -9 -18
-8 -14 9 6 21 18 26 28 11z m-4598 -703 c-3 -8 -6 -5 -6 6 -1 11 2 17 5 13 3
-3 4 -12 1 -19z m5733 -262 c0 -2 -7 -6 -15 -10 -8 -3 -15 -1 -15 4 0 6 7 10
15 10 8 0 15 -2 15 -4z m-3873 -342 c-3 -3 -12 -4 -19 -1 -8 3 -5 6 6 6 11 1
17 -2 13 -5z m3211 -434 c12 -11 24 -20 27 -20 10 0 35 -28 35 -39 0 -15 -69
-25 -99 -15 -32 12 -39 46 -14 73 23 25 25 25 51 1z m-2945 -17 c-7 -2 -21 -2
-30 0 -10 3 -4 5 12 5 17 0 24 -2 18 -5z m22 -43 c13 -6 15 -9 5 -9 -8 0 -22
4 -30 9 -18 12 -2 12 25 0z m-1342 -63 c34 -24 32 -76 -7 -149 -20 -38 -31
-70 -26 -73 6 -3 10 -25 10 -48 0 -27 11 -60 28 -92 l27 -50 55 2 c142 5 227
12 253 22 44 17 62 13 95 -19 18 -16 38 -30 46 -30 7 0 25 -9 39 -20 14 -11
37 -20 52 -20 14 0 51 -12 81 -26 49 -23 64 -25 149 -22 52 1 95 7 95 12 0 4
11 6 25 4 17 -4 25 -1 25 9 0 11 8 13 28 9 42 -9 94 -10 127 -3 33 8 61 -5 51
-22 -4 -6 -15 -11 -25 -11 -13 0 -20 -10 -25 -30 -3 -16 -12 -30 -19 -30 -7 0
-23 -11 -35 -25 -12 -14 -28 -25 -36 -25 -8 0 -25 -15 -37 -32 -13 -18 -26
-35 -30 -38 -20 -14 -9 -84 26 -167 15 -34 12 -121 -5 -153 -12 -22 -3 -46 26
-75 25 -25 3 -39 -57 -36 -28 1 -55 3 -58 6 -4 2 -13 33 -21 69 -7 36 -17 66
-21 66 -4 0 -22 30 -41 66 -40 80 -91 116 -164 116 -26 0 -59 4 -73 9 -17 7
-32 6 -48 -2 -18 -10 -27 -9 -48 5 -25 16 -29 16 -61 1 -19 -9 -43 -13 -54
-10 -11 4 -20 2 -20 -4 0 -6 -9 -11 -20 -11 -11 0 -20 5 -20 10 0 17 -45 29
-128 35 -75 6 -77 5 -89 -19 -9 -22 -7 -33 14 -75 27 -52 25 -81 -5 -81 -21 0
-65 -37 -58 -49 3 -5 -6 -6 -21 -3 -18 3 -24 1 -19 -7 4 -6 2 -11 -3 -11 -6 0
-11 5 -11 10 0 6 -6 10 -13 10 -7 0 -32 9 -55 20 -47 23 -80 25 -104 6 -22
-16 -134 -14 -167 3 -20 11 -26 10 -50 -11 -36 -34 -101 -69 -112 -63 -5 4 -9
1 -9 -4 0 -6 4 -11 10 -11 18 0 24 -50 7 -63 -16 -13 -13 -67 4 -67 15 0 10
-48 -7 -64 -26 -27 -60 -20 -74 14 -7 17 -16 30 -21 30 -5 0 -9 7 -9 15 0 16
-45 21 -54 6 -8 -12 -53 -2 -67 16 -10 11 -10 22 -1 47 17 46 15 64 -8 83 -11
10 -20 23 -20 30 0 6 -8 17 -17 22 -14 8 -15 11 -3 11 10 1 9 4 -5 10 -11 5
-15 9 -8 9 8 1 10 12 6 35 -3 19 -1 36 6 40 14 9 15 53 1 58 -5 2 -11 15 -12
31 -1 15 -6 27 -10 27 -4 0 -8 5 -8 11 0 5 5 7 10 4 10 -6 14 7 11 33 -3 21
21 13 26 -9 5 -18 11 -20 43 -16 20 2 44 1 52 -4 9 -5 43 -5 77 -1 33 5 64 5
69 0 21 -21 94 -20 155 3 71 26 78 33 74 74 -1 22 -16 43 -53 78 -29 26 -56
47 -60 46 -41 -7 -54 48 -23 97 11 19 24 34 28 34 4 0 13 11 19 25 8 16 23 28
42 31 16 4 30 12 30 19 0 7 12 16 26 19 29 8 56 30 47 40 -3 3 0 12 7 21 9 10
11 34 7 73 -3 35 -2 49 3 37 7 -16 9 -11 9 19 1 22 9 56 19 77 16 36 20 38 87
50 39 7 77 16 85 20 20 11 23 11 43 -4z m3997 -203 c0 -2 -7 -4 -15 -4 -8 0
-15 4 -15 10 0 5 7 7 15 4 8 -4 15 -8 15 -10z m-2771 -83 c1 -35 -5 -22 -12
24 -5 28 -4 34 3 20 5 -11 9 -31 9 -44z m-789 -543 c0 -13 -23 -5 -28 10 -2 7
2 10 12 6 9 -3 16 -11 16 -16z m5435 -168 c3 -5 1 -10 -4 -10 -6 0 -11 5 -11
10 0 6 2 10 4 10 3 0 8 -4 11 -10z m166 -210 c42 0 65 -101 32 -140 -10 -12
-18 -31 -18 -43 0 -13 -7 -23 -17 -25 -13 -2 -16 1 -12 12 3 9 2 16 -4 16 -8
0 -34 48 -38 73 -1 4 -2 8 -4 10 -1 1 -4 22 -6 47 -4 39 -1 46 18 55 13 6 25
7 26 3 2 -5 12 -8 23 -8z m922 -37 c-7 -2 -21 -2 -30 0 -10 3 -4 5 12 5 17 0
24 -2 18 -5z m-5199 -17 c38 -13 66 -39 66 -60 0 -6 -5 -4 -10 4 -6 9 -10 10
-10 3 0 -17 62 -73 82 -73 9 0 20 5 23 10 14 22 23 7 30 -47 6 -51 8 -55 20
-39 13 17 14 17 32 -3 22 -26 31 -26 60 1 13 12 23 16 23 10 0 -7 12 -12 26
-12 45 0 74 -51 74 -131 0 -29 -6 -41 -27 -55 -16 -10 -38 -17 -50 -16 -14 1
-23 -4 -23 -13 0 -9 6 -12 18 -9 14 5 15 4 2 -5 -21 -15 -28 -14 -34 7 -3 10
-16 18 -27 19 -23 2 -52 -20 -42 -31 4 -3 -3 -6 -14 -6 -14 0 -22 -8 -25 -25
-3 -14 -2 -25 3 -25 4 0 11 -20 15 -45 5 -36 11 -46 30 -51 13 -3 24 -9 24
-13 0 -3 14 -12 30 -20 23 -9 34 -10 44 -2 23 20 47 -29 40 -82 l-6 -45 -54
-7 c-53 -6 -54 -7 -54 -40 0 -26 -11 -48 -45 -89 -45 -56 -54 -79 -35 -91 12
-7 14 -45 2 -45 -4 0 -16 -25 -27 -56 -10 -31 -25 -58 -32 -61 -7 -3 -13 -13
-13 -23 0 -9 -9 -29 -20 -42 -10 -14 -17 -28 -14 -31 3 -3 -3 -3 -15 0 -15 4
-21 1 -21 -10 0 -8 -10 -27 -22 -42 -50 -59 -96 -105 -107 -105 -5 0 -8 -6 -5
-14 3 -7 -2 -16 -11 -20 -10 -4 -14 -2 -9 6 4 7 3 8 -4 4 -7 -4 -12 -14 -12
-21 0 -9 -6 -12 -17 -8 -12 5 -14 3 -8 -7 6 -10 2 -11 -19 -6 -20 5 -26 3 -26
-9 0 -9 -5 -13 -10 -10 -6 4 -8 10 -5 14 2 5 -6 8 -18 8 -50 1 -53 3 -32 19
14 11 15 15 5 14 -29 -4 -39 0 -45 20 -3 11 -13 20 -21 20 -13 0 -18 12 -15
33 1 6 -5 8 -24 7 -3 -1 -13 6 -21 15 -9 8 -20 12 -26 9 -6 -4 -8 -3 -5 3 13
22 14 59 1 71 -12 11 -15 10 -20 -2 -3 -9 -12 -16 -20 -16 -8 0 -14 -4 -14
-10 0 -6 9 -6 25 0 16 6 25 6 25 0 0 -6 -6 -10 -14 -10 -8 0 -17 -7 -20 -16
-3 -8 -10 -12 -16 -9 -5 3 -10 2 -10 -4 0 -5 -9 -8 -20 -6 -20 4 -26 -5 -13
-19 4 -3 8 -17 10 -29 2 -17 1 -19 -6 -7 -5 8 -7 18 -5 22 9 14 -7 9 -22 -7
-14 -13 -14 -15 0 -15 27 0 18 -20 -16 -35 -18 -8 -27 -14 -20 -15 20 0 14
-20 -7 -20 -14 0 -17 6 -13 26 3 19 1 25 -7 20 -6 -4 -14 0 -18 9 -5 16 -7 16
-15 1 -8 -15 -11 -15 -24 -1 -19 19 -34 11 -27 -14 4 -15 0 -20 -16 -18 -12 1
-21 5 -21 10 0 5 7 7 15 3 8 -3 15 -1 15 3 0 5 -7 12 -16 15 -11 4 -18 -1 -21
-14 -3 -11 -9 -17 -14 -14 -5 3 -9 1 -9 -5 0 -6 -10 -16 -22 -22 -21 -11 -22
-11 -9 5 12 14 12 16 -3 10 -18 -7 -18 -5 -20 81 -1 33 -5 65 -8 71 -4 6 -1
11 7 11 8 0 13 -2 10 -5 -8 -9 16 -42 30 -42 9 0 15 -9 15 -23 0 -31 16 -45
46 -39 22 4 26 9 23 28 0 4 5 11 13 15 8 5 9 9 2 9 -14 0 4 58 26 85 12 14 12
19 3 22 -7 3 -13 9 -13 14 0 6 6 7 13 3 9 -6 9 -5 -1 8 -6 8 -15 37 -18 64 -3
27 -12 53 -20 57 -19 11 -18 57 1 57 8 0 15 5 15 11 0 15 42 59 57 59 6 0 13
12 15 27 2 19 9 27 25 28 32 2 38 12 14 20 -21 6 -29 25 -11 25 6 0 10 -4 10
-10 0 -5 8 -10 18 -10 14 0 15 2 2 10 -11 7 -11 10 -2 10 7 0 11 4 7 10 -7 11
45 40 72 40 10 0 30 13 45 29 16 15 40 34 55 42 48 25 92 79 65 79 -5 0 -9 7
-9 15 0 9 6 14 14 11 7 -3 13 1 13 8 0 7 11 34 25 60 13 25 22 46 18 46 -3 0
-1 6 4 13 6 6 9 20 8 30 -2 9 0 17 5 17 7 0 32 118 29 137 -7 44 34 90 81 91
64 0 67 1 50 12 -12 8 -9 10 13 10 16 0 26 5 25 13 -2 7 7 12 20 11 16 0 19 3
12 10 -15 15 -12 29 4 23 20 -8 28 19 10 34 -14 12 -83 16 -129 8 -17 -3 -19
1 -17 26 3 25 45 83 62 84 3 1 23 -5 44 -13z m3331 4 c3 -6 -1 -7 -9 -4 -18 7
-21 14 -7 14 6 0 13 -4 16 -10z m1770 -40 c-3 -5 -1 -10 4 -10 6 0 11 -7 11
-15 0 -8 -7 -15 -15 -15 -15 0 -21 31 -8 43 10 10 15 8 8 -3z m-4850 -61 c9
-27 4 -30 -33 -23 -46 9 -43 44 4 44 14 0 25 -8 29 -21z m5735 -413 c0 -2 -7
-7 -16 -10 -8 -3 -12 -2 -9 4 6 10 25 14 25 6z m-6530 -316 c0 -5 -4 -10 -10
-10 -5 0 -10 5 -10 10 0 6 5 10 10 10 6 0 10 -4 10 -10z m110 -485 c-7 -8 -9
-15 -4 -16 5 0 -2 -5 -16 -10 -23 -10 -24 -11 -8 -23 10 -7 15 -16 11 -19 -3
-4 -13 3 -21 14 -13 20 -12 23 14 45 34 27 42 30 24 9z m-253 -51 c-3 -3 -12
-4 -19 -1 -8 3 -5 6 6 6 11 1 17 -2 13 -5z m163 -58 c0 -3 -4 -8 -10 -11 -5
-3 -10 -1 -10 4 0 6 5 11 10 11 6 0 10 -2 10 -4z"/>
<path d="M2695 6750 c20 -23 29 -21 19 4 -3 9 -13 16 -22 16 -13 0 -12 -3 3
-20z"/>
<path d="M4735 6560 c3 -5 8 -10 11 -10 2 0 4 5 4 10 0 6 -5 10 -11 10 -5 0
-7 -4 -4 -10z"/>
<path d="M3940 6476 c0 -9 5 -16 10 -16 6 0 10 4 10 9 0 6 -4 13 -10 16 -5 3
-10 -1 -10 -9z"/>
<path d="M5220 6441 c0 -17 12 -41 21 -41 5 0 9 11 9 25 0 16 -6 25 -15 25 -8
0 -15 -4 -15 -9z"/>
<path d="M5262 6420 c0 -14 2 -19 5 -12 2 6 2 18 0 25 -3 6 -5 1 -5 -13z"/>
<path d="M4938 6383 c7 -3 16 -2 19 1 4 3 -2 6 -13 5 -11 0 -14 -3 -6 -6z"/>
<path d="M4790 6160 c0 -5 5 -10 10 -10 6 0 10 -7 10 -17 0 -9 3 -14 6 -10 8
8 -5 47 -17 47 -5 0 -9 -4 -9 -10z"/>
<path d="M4820 5870 c0 -5 7 -10 15 -10 8 0 15 5 15 10 0 6 -7 10 -15 10 -8 0
-15 -4 -15 -10z"/>
<path d="M4280 5839 c0 -5 9 -9 20 -9 11 0 20 2 20 4 0 2 -9 6 -20 9 -11 3
-20 1 -20 -4z"/>
<path d="M4783 5823 c9 -2 23 -2 30 0 6 3 -1 5 -18 5 -16 0 -22 -2 -12 -5z"/>
<path d="M2105 1730 c-3 -6 1 -7 9 -4 18 7 21 14 7 14 -6 0 -13 -4 -16 -10z"/>
<path d="M2066 1709 c3 -5 0 -9 -6 -9 -6 0 -8 -5 -4 -11 4 -7 9 -8 13 -1 3 5
15 12 26 14 17 3 15 5 -7 10 -15 3 -25 1 -22 -3z"/>
<path d="M1940 1636 c0 -2 7 -7 16 -10 8 -3 12 -2 9 4 -6 10 -25 14 -25 6z"/>
<path d="M2020 1632 c0 -5 7 -9 15 -9 8 0 12 4 9 9 -3 4 -9 8 -15 8 -5 0 -9
-4 -9 -8z"/>
<path d="M5560 5625 c0 -8 9 -15 20 -15 11 0 20 7 20 15 0 8 -9 15 -20 15 -11
0 -20 -7 -20 -15z"/>
<path d="M5703 5583 c9 -2 23 -2 30 0 6 3 -1 5 -18 5 -16 0 -22 -2 -12 -5z"/>
<path d="M5500 5570 c0 -5 5 -10 10 -10 6 0 10 5 10 10 0 6 -4 10 -10 10 -5 0
-10 -4 -10 -10z"/>
<path d="M5478 5523 c7 -3 16 -2 19 1 4 3 -2 6 -13 5 -11 0 -14 -3 -6 -6z"/>
<path d="M7481 5024 c0 -11 3 -14 6 -6 3 7 2 16 -1 19 -3 4 -6 -2 -5 -13z"/>
<path d="M7432 4910 c0 -14 2 -19 5 -12 2 6 2 18 0 25 -3 6 -5 1 -5 -13z"/>
<path d="M7424 4860 c0 -11 4 -20 8 -20 4 0 8 9 8 20 0 11 -4 20 -8 20 -4 0
-8 -9 -8 -20z"/>
<path d="M6945 4860 c-3 -5 -2 -10 4 -10 5 0 13 5 16 10 3 6 2 10 -4 10 -5 0
-13 -4 -16 -10z"/>
<path d="M6977 4475 c-2 -14 -2 -27 1 -30 9 -9 61 -5 67 5 3 6 0 10 -8 10 -7
0 -23 9 -34 19 -21 20 -21 20 -26 -4z"/>
<path d="M6987 4397 c-4 -10 2 -13 20 -9 15 3 29 -1 34 -9 6 -10 9 -8 9 9 0
18 -6 22 -29 22 -16 0 -31 -6 -34 -13z"/>
<path d="M2860 4269 c0 -5 5 -7 10 -4 6 3 10 8 10 11 0 2 -4 4 -10 4 -5 0 -10
-5 -10 -11z"/>
<path d="M4451 4056 c2 -2 15 -9 29 -15 24 -11 24 -11 6 3 -16 13 -49 24 -35
12z"/>
<path d="M6921 3673 c-1 -7 -10 -13 -21 -13 -15 0 -20 -7 -20 -25 0 -20 5 -25
25 -25 14 0 25 5 25 10 0 6 9 10 20 10 11 0 20 7 20 15 0 8 -9 15 -19 15 -11
0 -22 6 -24 13 -4 10 -6 10 -6 0z"/>
<path d="M8026 3657 c-5 -15 -6 -31 -2 -34 11 -11 18 5 14 34 l-4 28 -8 -28z"/>
<path d="M7040 3640 c0 -5 5 -10 10 -10 6 0 10 5 10 10 0 6 -4 10 -10 10 -5 0
-10 -4 -10 -10z"/>
<path d="M8385 3619 c-3 -4 0 -9 6 -11 19 -6 0 -46 -25 -52 -14 -3 -26 -16
-30 -30 -6 -23 -49 -42 -84 -37 -8 1 -24 -5 -37 -13 -14 -9 -37 -17 -52 -17
l-28 -1 30 -8 30 -8 -32 -1 c-34 -1 -41 -9 -22 -28 5 -5 11 -29 12 -53 2 -48
-3 -45 105 -56 53 -5 62 -3 62 11 0 9 4 14 9 10 6 -3 13 1 18 8 13 21 95 60
122 59 14 -1 30 6 38 18 8 11 23 20 33 20 10 0 22 5 25 10 3 6 15 10 26 10 12
0 19 7 19 20 0 16 7 20 30 20 19 0 30 5 30 14 0 10 13 16 38 18 25 2 37 8 37
18 0 10 -12 16 -37 18 -21 2 -38 7 -38 13 0 5 -11 9 -24 9 -22 0 -41 23 -32
38 2 4 -48 7 -110 8 -63 1 -117 -2 -119 -7z"/>
<path d="M7151 3574 c0 -11 3 -14 6 -6 3 7 2 16 -1 19 -3 4 -6 -2 -5 -13z"/>
<path d="M8775 3490 c3 -5 12 -10 20 -10 8 0 17 5 20 10 4 6 -5 10 -20 10 -15
0 -24 -4 -20 -10z"/>
<path d="M3615 3439 c-4 -6 -5 -13 -2 -16 7 -7 27 6 27 18 0 12 -17 12 -25 -2z"/>
<path d="M7860 3010 c0 -5 7 -7 15 -4 8 4 15 8 15 10 0 2 -7 4 -15 4 -8 0 -15
-4 -15 -10z"/>
<path d="M7655 2660 c-3 -6 1 -7 9 -4 18 7 21 14 7 14 -6 0 -13 -4 -16 -10z"/>
<path d="M8758 2553 c7 -3 16 -2 19 1 4 3 -2 6 -13 5 -11 0 -14 -3 -6 -6z"/>
<path d="M7436 2537 c3 -10 9 -15 12 -12 3 3 0 11 -7 18 -10 9 -11 8 -5 -6z"/>
</g>
</svg>
